<?xml version="1.0" encoding="UTF-8" standalone="no"?>
<!DOCTYPE svg PUBLIC "-//W3C//DTD SVG 1.1//EN"
 "http://www.w3.org/Graphics/SVG/1.1/DTD/svg11.dtd">
<!-- Generated by graphviz version 2.38.0 (20140413.2041)
 -->
<!-- Title: G Pages: 1 -->
<svg width="254pt" height="1931pt"
 viewBox="0.00 0.00 254.00 1931.00" xmlns="http://www.w3.org/2000/svg" xmlns:xlink="http://www.w3.org/1999/xlink">
<g id="graph0" class="graph" transform="scale(1 1) rotate(0) translate(4 1927)">
<title>G</title>
<polygon fill="white" stroke="none" points="-4,4 -4,-1927 250,-1927 250,4 -4,4"/>
<g id="clust1" class="cluster"><title>cluster_Drawing_shapes_software</title>
<polygon fill="#f0ffff" stroke="black" points="8,-8 8,-1915 238,-1915 238,-8 8,-8"/>
<text text-anchor="middle" x="123" y="-1903" font-family="Verdana" font-size="10.00">Drawing_shapes_software</text>
</g>
<g id="clust3" class="cluster"><title>cluster_Drawing_Shapes</title>
<polygon fill="yellow" stroke="black" points="74.2,-1849 74.2,-1888 171.8,-1888 171.8,-1849 74.2,-1849"/>
<text text-anchor="middle" x="123" y="-1876" font-family="Verdana" font-size="10.00">Drawing_Shapes</text>
</g>
<g id="clust4" class="cluster"><title>cluster_Drawing_Shapes_coreElements</title>
<polygon fill="yellow" stroke="black" points="38,-1415 38,-1841 208,-1841 208,-1415 38,-1415"/>
<text text-anchor="middle" x="123" y="-1829" font-family="Verdana" font-size="10.00">Drawing_Shapes_coreElements</text>
</g>
<g id="clust5" class="cluster"><title>cluster_MyRectangle</title>
<polygon fill="#ffe4c4" stroke="black" points="75,-1689 75,-1814 171,-1814 171,-1689 75,-1689"/>
<text text-anchor="middle" x="123" y="-1802" font-family="Verdana" font-size="10.00">MyRectangle</text>
</g>
<g id="clust6" class="cluster"><title>cluster_MyOval</title>
<polygon fill="#ffe4c4" stroke="black" points="88,-1556 88,-1681 158,-1681 158,-1556 88,-1556"/>
<text text-anchor="middle" x="123" y="-1669" font-family="Verdana" font-size="10.00">MyOval</text>
</g>
<g id="clust7" class="cluster"><title>cluster_MyLine</title>
<polygon fill="#ffe4c4" stroke="black" points="88,-1423 88,-1548 158,-1548 158,-1423 88,-1423"/>
<text text-anchor="middle" x="123" y="-1536" font-family="Verdana" font-size="10.00">MyLine</text>
</g>
<g id="clust2" class="cluster"><title>cluster_Drawing</title>
<polygon fill="yellow" stroke="black" points="95.2,-1368 95.2,-1407 150.8,-1407 150.8,-1368 95.2,-1368"/>
<text text-anchor="middle" x="123" y="-1395" font-family="Verdana" font-size="10.00">Drawing</text>
</g>
<g id="clust8" class="cluster"><title>cluster_Drawing_Shapes_coreFrame</title>
<polygon fill="yellow" stroke="black" points="16,-16 16,-1360 230,-1360 230,-16 16,-16"/>
<text text-anchor="middle" x="123" y="-1348" font-family="Verdana" font-size="10.00">Drawing_Shapes_coreFrame</text>
</g>
<g id="clust10" class="cluster"><title>cluster_DrawingShapes</title>
<polygon fill="#ffe4c4" stroke="black" points="24,-1046 24,-1333 222,-1333 222,-1046 24,-1046"/>
<text text-anchor="middle" x="123" y="-1321" font-family="Verdana" font-size="10.00">DrawingShapes</text>
</g>
<g id="clust9" class="cluster"><title>cluster_PaintJPanel</title>
<polygon fill="#ffe4c4" stroke="black" points="43,-697 43,-1038 203,-1038 203,-697 43,-697"/>
<text text-anchor="middle" x="123" y="-1026" font-family="Verdana" font-size="10.00">PaintJPanel</text>
</g>
<g id="clust11" class="cluster"><title>cluster_MyShape</title>
<polygon fill="#ffe4c4" stroke="black" points="84,-24 84,-689 162,-689 162,-24 84,-24"/>
<text text-anchor="middle" x="123" y="-677" font-family="Verdana" font-size="10.00">MyShape</text>
</g>
<!-- &#45;717304834 -->
<g id="node1" class="node"><title>&#45;717304834</title>
<ellipse fill="yellow" stroke="yellow" cx="123" cy="-1378" rx="1.8" ry="1.8"/>
</g>
<!-- 501846274 -->
<g id="node2" class="node"><title>501846274</title>
<ellipse fill="yellow" stroke="yellow" cx="123" cy="-1859" rx="1.8" ry="1.8"/>
</g>
<!-- &#45;387624928 -->
<g id="node3" class="node"><title>&#45;387624928</title>
<polygon fill="#98f5ff" stroke="none" points="163,-1787 83,-1787 83,-1751 163,-1751 163,-1787"/>
<polyline fill="none" stroke="black" points="83,-1751 163,-1751 "/>
<text text-anchor="middle" x="123" y="-1766.5" font-family="Verdana" font-size="10.00">MyRectangle</text>
</g>
<!-- 1425341639 -->
<g id="node4" class="node"><title>1425341639</title>
<polygon fill="#98f5ff" stroke="none" points="150,-1733 96,-1733 96,-1697 150,-1697 150,-1733"/>
<polyline fill="none" stroke="black" points="96,-1697 150,-1697 "/>
<text text-anchor="middle" x="123" y="-1712.5" font-family="Verdana" font-size="10.00">draw</text>
</g>
<!-- &#45;1570553348 -->
<g id="node5" class="node"><title>&#45;1570553348</title>
<polygon fill="#98f5ff" stroke="none" points="150,-1654 96,-1654 96,-1618 150,-1618 150,-1654"/>
<polyline fill="none" stroke="black" points="96,-1618 150,-1618 "/>
<text text-anchor="middle" x="123" y="-1633.5" font-family="Verdana" font-size="10.00">MyOval</text>
</g>
<!-- &#45;1431121278 -->
<g id="node6" class="node"><title>&#45;1431121278</title>
<polygon fill="#98f5ff" stroke="none" points="150,-1600 96,-1600 96,-1564 150,-1564 150,-1600"/>
<polyline fill="none" stroke="black" points="96,-1564 150,-1564 "/>
<text text-anchor="middle" x="123" y="-1579.5" font-family="Verdana" font-size="10.00">draw</text>
</g>
<!-- 305096640 -->
<g id="node7" class="node"><title>305096640</title>
<polygon fill="#98f5ff" stroke="none" points="150,-1521 96,-1521 96,-1485 150,-1485 150,-1521"/>
<polyline fill="none" stroke="black" points="96,-1485 150,-1485 "/>
<text text-anchor="middle" x="123" y="-1500.5" font-family="Verdana" font-size="10.00">MyLine</text>
</g>
<!-- &#45;651516636 -->
<g id="node8" class="node"><title>&#45;651516636</title>
<polygon fill="#98f5ff" stroke="none" points="150,-1467 96,-1467 96,-1431 150,-1431 150,-1467"/>
<polyline fill="none" stroke="black" points="96,-1431 150,-1431 "/>
<text text-anchor="middle" x="123" y="-1446.5" font-family="Verdana" font-size="10.00">draw</text>
</g>
<!-- &#45;2004840192 -->
<g id="node9" class="node"><title>&#45;2004840192</title>
<polygon fill="#98f5ff" stroke="none" points="159,-1011 87,-1011 87,-975 159,-975 159,-1011"/>
<polyline fill="none" stroke="black" points="87,-975 159,-975 "/>
<text text-anchor="middle" x="123" y="-990.5" font-family="Verdana" font-size="10.00">PaintJPanel</text>
</g>
<!-- &#45;644177684 -->
<g id="node10" class="node"><title>&#45;644177684</title>
<polygon fill="#98f5ff" stroke="none" points="185.5,-957 60.5,-957 60.5,-921 185.5,-921 185.5,-957"/>
<polyline fill="none" stroke="black" points="60.5,-921 185.5,-921 "/>
<text text-anchor="middle" x="123" y="-936.5" font-family="Verdana" font-size="10.00">setCurrentShapeType</text>
</g>
<!-- 831919700 -->
<g id="node11" class="node"><title>831919700</title>
<polygon fill="#98f5ff" stroke="none" points="170,-903 76,-903 76,-867 170,-867 170,-903"/>
<polyline fill="none" stroke="black" points="76,-867 170,-867 "/>
<text text-anchor="middle" x="123" y="-882.5" font-family="Verdana" font-size="10.00">setCurrentColor</text>
</g>
<!-- &#45;1319108355 -->
<g id="node12" class="node"><title>&#45;1319108355</title>
<polygon fill="#98f5ff" stroke="none" points="194,-849 52,-849 52,-813 194,-813 194,-849"/>
<polyline fill="none" stroke="black" points="52,-813 194,-813 "/>
<text text-anchor="middle" x="123" y="-828.5" font-family="Verdana" font-size="10.00">paintJPanelMousePressed</text>
</g>
<!-- 911686253 -->
<g id="node13" class="node"><title>911686253</title>
<polygon fill="#98f5ff" stroke="none" points="195,-795 51,-795 51,-759 195,-759 195,-795"/>
<polyline fill="none" stroke="black" points="51,-759 195,-759 "/>
<text text-anchor="middle" x="123" y="-774.5" font-family="Verdana" font-size="10.00">paintJPanelMouseDragged</text>
</g>
<!-- 709639639 -->
<g id="node14" class="node"><title>709639639</title>
<polygon fill="#98f5ff" stroke="none" points="171.5,-741 74.5,-741 74.5,-705 171.5,-705 171.5,-741"/>
<polyline fill="none" stroke="black" points="74.5,-705 171.5,-705 "/>
<text text-anchor="middle" x="123" y="-720.5" font-family="Verdana" font-size="10.00">paintComponent</text>
</g>
<!-- &#45;517527040 -->
<g id="node15" class="node"><title>&#45;517527040</title>
<polygon fill="#98f5ff" stroke="none" points="169,-1306 77,-1306 77,-1270 169,-1270 169,-1306"/>
<polyline fill="none" stroke="black" points="77,-1270 169,-1270 "/>
<text text-anchor="middle" x="123" y="-1285.5" font-family="Verdana" font-size="10.00">DrawingShapes</text>
</g>
<!-- 1147514242 -->
<g id="node16" class="node"><title>1147514242</title>
<polygon fill="#98f5ff" stroke="none" points="181,-1252 65,-1252 65,-1216 181,-1216 181,-1252"/>
<polyline fill="none" stroke="black" points="65,-1216 181,-1216 "/>
<text text-anchor="middle" x="123" y="-1231.5" font-family="Verdana" font-size="10.00">createUserInterface</text>
</g>
<!-- &#45;1506158335 -->
<g id="node17" class="node"><title>&#45;1506158335</title>
<polygon fill="#98f5ff" stroke="none" points="202.5,-1198 43.5,-1198 43.5,-1162 202.5,-1162 202.5,-1198"/>
<polyline fill="none" stroke="black" points="43.5,-1162 202.5,-1162 "/>
<text text-anchor="middle" x="123" y="-1177.5" font-family="Verdana" font-size="10.00">colorJButtonActionPerformed</text>
</g>
<!-- &#45;350645388 -->
<g id="node18" class="node"><title>&#45;350645388</title>
<polygon fill="#98f5ff" stroke="none" points="214,-1144 32,-1144 32,-1108 214,-1108 214,-1144"/>
<polyline fill="none" stroke="black" points="32,-1108 214,-1108 "/>
<text text-anchor="middle" x="123" y="-1123.5" font-family="Verdana" font-size="10.00">shapeJComboBoxActionPerformed</text>
</g>
<!-- &#45;1745869751 -->
<g id="node19" class="node"><title>&#45;1745869751</title>
<polygon fill="#98f5ff" stroke="none" points="150,-1090 96,-1090 96,-1054 150,-1054 150,-1090"/>
<polyline fill="none" stroke="black" points="96,-1054 150,-1054 "/>
<text text-anchor="middle" x="123" y="-1069.5" font-family="Verdana" font-size="10.00">main</text>
</g>
<!-- &#45;851662240 -->
<g id="node20" class="node"><title>&#45;851662240</title>
<polygon fill="#98f5ff" stroke="none" points="154,-662 92,-662 92,-626 154,-626 154,-662"/>
<polyline fill="none" stroke="black" points="92,-626 154,-626 "/>
<text text-anchor="middle" x="123" y="-641.5" font-family="Verdana" font-size="10.00">MyShape</text>
</g>
<!-- 1410177702 -->
<g id="node21" class="node"><title>1410177702</title>
<polygon fill="#98f5ff" stroke="none" points="150,-608 96,-608 96,-572 150,-572 150,-608"/>
<polyline fill="none" stroke="black" points="96,-572 150,-572 "/>
<text text-anchor="middle" x="123" y="-587.5" font-family="Verdana" font-size="10.00">setX1</text>
</g>
<!-- 1399095450 -->
<g id="node22" class="node"><title>1399095450</title>
<polygon fill="#98f5ff" stroke="none" points="150,-554 96,-554 96,-518 150,-518 150,-554"/>
<polyline fill="none" stroke="black" points="96,-518 150,-518 "/>
<text text-anchor="middle" x="123" y="-533.5" font-family="Verdana" font-size="10.00">getX1</text>
</g>
<!-- 1410177733 -->
<g id="node23" class="node"><title>1410177733</title>
<polygon fill="#98f5ff" stroke="none" points="150,-500 96,-500 96,-464 150,-464 150,-500"/>
<polyline fill="none" stroke="black" points="96,-464 150,-464 "/>
<text text-anchor="middle" x="123" y="-479.5" font-family="Verdana" font-size="10.00">setY1</text>
</g>
<!-- 1399095481 -->
<g id="node24" class="node"><title>1399095481</title>
<polygon fill="#98f5ff" stroke="none" points="150,-446 96,-446 96,-410 150,-410 150,-446"/>
<polyline fill="none" stroke="black" points="96,-410 150,-410 "/>
<text text-anchor="middle" x="123" y="-425.5" font-family="Verdana" font-size="10.00">getY1</text>
</g>
<!-- 1410177703 -->
<g id="node25" class="node"><title>1410177703</title>
<polygon fill="#98f5ff" stroke="none" points="150,-392 96,-392 96,-356 150,-356 150,-392"/>
<polyline fill="none" stroke="black" points="96,-356 150,-356 "/>
<text text-anchor="middle" x="123" y="-371.5" font-family="Verdana" font-size="10.00">setX2</text>
</g>
<!-- 1399095451 -->
<g id="node26" class="node"><title>1399095451</title>
<polygon fill="#98f5ff" stroke="none" points="150,-338 96,-338 96,-302 150,-302 150,-338"/>
<polyline fill="none" stroke="black" points="96,-302 150,-302 "/>
<text text-anchor="middle" x="123" y="-317.5" font-family="Verdana" font-size="10.00">getX2</text>
</g>
<!-- 1410177734 -->
<g id="node27" class="node"><title>1410177734</title>
<polygon fill="#98f5ff" stroke="none" points="150,-284 96,-284 96,-248 150,-248 150,-284"/>
<polyline fill="none" stroke="black" points="96,-248 150,-248 "/>
<text text-anchor="middle" x="123" y="-263.5" font-family="Verdana" font-size="10.00">setY2</text>
</g>
<!-- 1399095482 -->
<g id="node28" class="node"><title>1399095482</title>
<polygon fill="#98f5ff" stroke="none" points="150,-230 96,-230 96,-194 150,-194 150,-230"/>
<polyline fill="none" stroke="black" points="96,-194 150,-194 "/>
<text text-anchor="middle" x="123" y="-209.5" font-family="Verdana" font-size="10.00">getY2</text>
</g>
<!-- 1511358550 -->
<g id="node29" class="node"><title>1511358550</title>
<polygon fill="#98f5ff" stroke="none" points="151.5,-176 94.5,-176 94.5,-140 151.5,-140 151.5,-176"/>
<polyline fill="none" stroke="black" points="94.5,-140 151.5,-140 "/>
<text text-anchor="middle" x="123" y="-155.5" font-family="Verdana" font-size="10.00">setColor</text>
</g>
<!-- 2072471010 -->
<g id="node30" class="node"><title>2072471010</title>
<polygon fill="#98f5ff" stroke="none" points="152,-122 94,-122 94,-86 152,-86 152,-122"/>
<polyline fill="none" stroke="black" points="94,-86 152,-86 "/>
<text text-anchor="middle" x="123" y="-101.5" font-family="Verdana" font-size="10.00">getColor</text>
</g>
<!-- 1430527993 -->
<g id="node31" class="node"><title>1430527993</title>
<polygon fill="#98f5ff" stroke="none" points="150,-68 96,-68 96,-32 150,-32 150,-68"/>
<polyline fill="none" stroke="black" points="96,-32 150,-32 "/>
<text text-anchor="middle" x="123" y="-47.5" font-family="Verdana" font-size="10.00">draw</text>
</g>
</g>
</svg>
