<?xml version="1.0" encoding="UTF-8" standalone="no"?>
<!DOCTYPE svg PUBLIC "-//W3C//DTD SVG 1.1//EN"
 "http://www.w3.org/Graphics/SVG/1.1/DTD/svg11.dtd">
<!-- Generated by graphviz version 2.38.0 (20140413.2041)
 -->
<!-- Title: G Pages: 1 -->
<svg width="450pt" height="273pt"
 viewBox="0.00 0.00 450.00 273.00" xmlns="http://www.w3.org/2000/svg" xmlns:xlink="http://www.w3.org/1999/xlink">
<g id="graph0" class="graph" transform="scale(1 1) rotate(0) translate(4 269)">
<title>G</title>
<polygon fill="white" stroke="none" points="-4,4 -4,-269 446,-269 446,4 -4,4"/>
<g id="clust1" class="cluster"><title>cluster_Drawing_shapes_software</title>
<polygon fill="#e0eeee" stroke="black" points="8,-8 8,-257 434,-257 434,-8 8,-8"/>
<text text-anchor="middle" x="221" y="-245" font-family="Verdana" font-size="10.00">Drawing_shapes_software</text>
</g>
<g id="clust3" class="cluster"><title>cluster_Drawing_Shapes</title>
<polygon fill="#ffe4c4" stroke="black" points="328,-175.2 328,-213.8 426,-213.8 426,-175.2 328,-175.2"/>
<text text-anchor="middle" x="377" y="-201.8" font-family="Verdana" font-size="10.00">Drawing_Shapes</text>
</g>
<g id="clust4" class="cluster"><title>cluster_Drawing_Shapes_coreElements</title>
<polygon fill="#ffe4c4" stroke="black" points="80,-159 80,-230 320,-230 320,-159 80,-159"/>
<text text-anchor="middle" x="200" y="-218" font-family="Verdana" font-size="10.00">Drawing_Shapes_coreElements</text>
</g>
<g id="clust2" class="cluster"><title>cluster_Drawing</title>
<polygon fill="#ffe4c4" stroke="black" points="16,-175.2 16,-213.8 72,-213.8 72,-175.2 16,-175.2"/>
<text text-anchor="middle" x="44" y="-201.8" font-family="Verdana" font-size="10.00">Drawing</text>
</g>
<g id="clust5" class="cluster"><title>cluster_Drawing_Shapes_coreFrame</title>
<polygon fill="#ffe4c4" stroke="black" points="148,-80 148,-151 426,-151 426,-80 148,-80"/>
<text text-anchor="middle" x="287" y="-139" font-family="Verdana" font-size="10.00">Drawing_Shapes_coreFrame</text>
</g>
<!-- &#45;717304834 -->
<g id="node1" class="node"><title>&#45;717304834</title>
<ellipse fill="#ffe4c4" stroke="#ffe4c4" cx="44" cy="-185" rx="1.8" ry="1.8"/>
</g>
<!-- 501846274 -->
<g id="node2" class="node"><title>501846274</title>
<ellipse fill="#ffe4c4" stroke="#ffe4c4" cx="377" cy="-185" rx="1.8" ry="1.8"/>
</g>
<!-- &#45;104331005 -->
<g id="node3" class="node"><title>&#45;104331005</title>
<polygon fill="white" stroke="black" points="306,-203 232,-203 232,-167 312,-167 312,-197 306,-203"/>
<polyline fill="none" stroke="black" points="306,-203 306,-197 "/>
<polyline fill="none" stroke="black" points="312,-197 306,-197 "/>
<text text-anchor="middle" x="272" y="-182.5" font-family="Verdana" font-size="10.00">MyRectangle</text>
</g>
<!-- &#45;1132686027 -->
<g id="node8" class="node"><title>&#45;1132686027</title>
<polygon fill="white" stroke="black" points="212,-124 156,-124 156,-88 218,-88 218,-118 212,-124"/>
<polyline fill="none" stroke="black" points="212,-124 212,-118 "/>
<polyline fill="none" stroke="black" points="218,-118 212,-118 "/>
<text text-anchor="middle" x="187" y="-103.5" font-family="Verdana" font-size="10.00">MyShape</text>
</g>
<!-- &#45;104331005&#45;&gt;&#45;1132686027 -->
<g id="edge1" class="edge"><title>&#45;104331005&#45;&gt;&#45;1132686027</title>
<path fill="none" stroke="red" d="M246.547,-166.7C239.973,-161.869 233.049,-156.444 227,-151 226.788,-150.809 226.575,-150.616 226.362,-150.423"/>
<path fill="none" stroke="blue" d="M226.362,-150.423C220.096,-144.729 213.781,-138.195 208.099,-131.954"/>
<polygon fill="blue" stroke="blue" points="210.333,-129.198 201.076,-124.043 205.097,-133.845 210.333,-129.198"/>
</g>
<!-- &#45;1976306626 -->
<g id="node4" class="node"><title>&#45;1976306626</title>
<polygon fill="white" stroke="black" points="208,-203 160,-203 160,-167 214,-167 214,-197 208,-203"/>
<polyline fill="none" stroke="black" points="208,-203 208,-197 "/>
<polyline fill="none" stroke="black" points="214,-197 208,-197 "/>
<text text-anchor="middle" x="187" y="-182.5" font-family="Verdana" font-size="10.00">MyOval</text>
</g>
<!-- &#45;1976306626&#45;&gt;&#45;1132686027 -->
<g id="edge2" class="edge"><title>&#45;1976306626&#45;&gt;&#45;1132686027</title>
<path fill="none" stroke="red" d="M187,-166.911C187,-162.126 187,-156.694 187,-151.101"/>
<path fill="none" stroke="blue" d="M187,-151.101C187,-145.508 187,-139.753 187,-134.323"/>
<polygon fill="blue" stroke="blue" points="190.5,-134.041 187,-124.041 183.5,-134.041 190.5,-134.041"/>
</g>
<!-- &#45;1976408096 -->
<g id="node5" class="node"><title>&#45;1976408096</title>
<polygon fill="white" stroke="black" points="136,-203 88,-203 88,-167 142,-167 142,-197 136,-203"/>
<polyline fill="none" stroke="black" points="136,-203 136,-197 "/>
<polyline fill="none" stroke="black" points="142,-197 136,-197 "/>
<text text-anchor="middle" x="115" y="-182.5" font-family="Verdana" font-size="10.00">MyLine</text>
</g>
<!-- &#45;1976408096&#45;&gt;&#45;1132686027 -->
<g id="edge3" class="edge"><title>&#45;1976408096&#45;&gt;&#45;1132686027</title>
<path fill="none" stroke="red" d="M130.979,-166.911C135.826,-161.727 141.384,-155.784 147.073,-149.699"/>
<path fill="none" stroke="blue" d="M147.073,-149.699C152.763,-143.615 158.585,-137.388 163.962,-131.638"/>
<polygon fill="blue" stroke="blue" points="166.792,-133.736 171.066,-124.041 161.679,-128.955 166.792,-133.736"/>
</g>
<!-- 88938904 -->
<g id="node6" class="node"><title>88938904</title>
<polygon fill="white" stroke="black" points="302,-124 236,-124 236,-88 308,-88 308,-118 302,-124"/>
<polyline fill="none" stroke="black" points="302,-124 302,-118 "/>
<polyline fill="none" stroke="black" points="308,-118 302,-118 "/>
<text text-anchor="middle" x="272" y="-103.5" font-family="Verdana" font-size="10.00">PaintJPanel</text>
</g>
<!-- &#45;2099529766 -->
<g id="node9" class="node"><title>&#45;2099529766</title>
<polygon fill="white" stroke="black" points="293,-52 245,-52 245,-16 299,-16 299,-46 293,-52"/>
<polyline fill="none" stroke="black" points="293,-52 293,-46 "/>
<polyline fill="none" stroke="black" points="299,-46 293,-46 "/>
<text text-anchor="middle" x="272" y="-31.5" font-family="Verdana" font-size="10.00">JPanel</text>
</g>
<!-- 88938904&#45;&gt;&#45;2099529766 -->
<g id="edge4" class="edge"><title>88938904&#45;&gt;&#45;2099529766</title>
<path fill="none" stroke="red" d="M272,-87.6966C272,-83.8397 272,-79.5936 272,-75.2368"/>
<path fill="none" stroke="blue" d="M272,-75.2368C272,-70.88 272,-66.4124 272,-62.1124"/>
<polygon fill="blue" stroke="blue" points="275.5,-62.1043 272,-52.1043 268.5,-62.1044 275.5,-62.1043"/>
</g>
<!-- 263382672 -->
<g id="node7" class="node"><title>263382672</title>
<polygon fill="white" stroke="black" points="412,-124 326,-124 326,-88 418,-88 418,-118 412,-124"/>
<polyline fill="none" stroke="black" points="412,-124 412,-118 "/>
<polyline fill="none" stroke="black" points="418,-118 412,-118 "/>
<text text-anchor="middle" x="372" y="-103.5" font-family="Verdana" font-size="10.00">DrawingShapes</text>
</g>
<!-- &#45;2108270781 -->
<g id="node10" class="node"><title>&#45;2108270781</title>
<polygon fill="white" stroke="black" points="393,-52 345,-52 345,-16 399,-16 399,-46 393,-52"/>
<polyline fill="none" stroke="black" points="393,-52 393,-46 "/>
<polyline fill="none" stroke="black" points="399,-46 393,-46 "/>
<text text-anchor="middle" x="372" y="-31.5" font-family="Verdana" font-size="10.00">JFrame</text>
</g>
<!-- 263382672&#45;&gt;&#45;2108270781 -->
<g id="edge5" class="edge"><title>263382672&#45;&gt;&#45;2108270781</title>
<path fill="none" stroke="red" d="M372,-87.6966C372,-83.8397 372,-79.5936 372,-75.2368"/>
<path fill="none" stroke="blue" d="M372,-75.2368C372,-70.88 372,-66.4124 372,-62.1124"/>
<polygon fill="blue" stroke="blue" points="375.5,-62.1043 372,-52.1043 368.5,-62.1044 375.5,-62.1043"/>
</g>
</g>
</svg>
