<?xml version="1.0" encoding="UTF-8" standalone="no"?>
<!DOCTYPE svg PUBLIC "-//W3C//DTD SVG 1.1//EN"
 "http://www.w3.org/Graphics/SVG/1.1/DTD/svg11.dtd">
<!-- Generated by graphviz version 2.38.0 (20140413.2041)
 -->
<!-- Title: G Pages: 1 -->
<svg width="979pt" height="1002pt"
 viewBox="0.00 0.00 979.00 1002.00" xmlns="http://www.w3.org/2000/svg" xmlns:xlink="http://www.w3.org/1999/xlink">
<g id="graph0" class="graph" transform="scale(1 1) rotate(0) translate(4 998)">
<title>G</title>
<polygon fill="white" stroke="none" points="-4,4 -4,-998 975,-998 975,4 -4,4"/>
<g id="clust1" class="cluster"><title>cluster_Drawing_shapes_software</title>
<polygon fill="#f0ffff" stroke="black" points="8,-8 8,-986 963,-986 963,-8 8,-8"/>
<text text-anchor="middle" x="485.5" y="-974" font-family="Verdana" font-size="10.00">Drawing_shapes_software</text>
</g>
<g id="clust3" class="cluster"><title>cluster_Drawing_Shapes</title>
<polygon fill="yellow" stroke="black" points="844.2,-808 844.2,-847 941.8,-847 941.8,-808 844.2,-808"/>
<text text-anchor="middle" x="893" y="-835" font-family="Verdana" font-size="10.00">Drawing_Shapes</text>
</g>
<g id="clust4" class="cluster"><title>cluster_Drawing_Shapes_coreElements</title>
<polygon fill="yellow" stroke="black" points="16,-425 16,-959 254,-959 254,-425 16,-425"/>
<text text-anchor="middle" x="135" y="-947" font-family="Verdana" font-size="10.00">Drawing_Shapes_coreElements</text>
</g>
<g id="clust5" class="cluster"><title>cluster_MyRectangle</title>
<polygon fill="#ffe4c4" stroke="black" points="24,-591 24,-932 246,-932 246,-591 24,-591"/>
<text text-anchor="middle" x="135" y="-920" font-family="Verdana" font-size="10.00">MyRectangle</text>
</g>
<g id="clust6" class="cluster"><title>cluster_MyOval</title>
<polygon fill="#ffe4c4" stroke="black" points="163,-512 163,-583 233,-583 233,-512 163,-512"/>
<text text-anchor="middle" x="198" y="-571" font-family="Verdana" font-size="10.00">MyOval</text>
</g>
<g id="clust7" class="cluster"><title>cluster_MyLine</title>
<polygon fill="#ffe4c4" stroke="black" points="163,-433 163,-504 233,-504 233,-433 163,-433"/>
<text text-anchor="middle" x="198" y="-492" font-family="Verdana" font-size="10.00">MyLine</text>
</g>
<g id="clust2" class="cluster"><title>cluster_Drawing</title>
<polygon fill="yellow" stroke="black" points="865.2,-649 865.2,-688 920.8,-688 920.8,-649 865.2,-649"/>
<text text-anchor="middle" x="893" y="-676" font-family="Verdana" font-size="10.00">Drawing</text>
</g>
<g id="clust8" class="cluster"><title>cluster_Drawing_Shapes_coreFrame</title>
<polygon fill="yellow" stroke="black" points="18,-16 18,-417 955,-417 955,-16 18,-16"/>
<text text-anchor="middle" x="486.5" y="-405" font-family="Verdana" font-size="10.00">Drawing_Shapes_coreFrame</text>
</g>
<g id="clust9" class="cluster"><title>cluster_PaintJPanel</title>
<polygon fill="#ffe4c4" stroke="black" points="26,-157 26,-390 439,-390 439,-157 26,-157"/>
<text text-anchor="middle" x="232.5" y="-378" font-family="Verdana" font-size="10.00">PaintJPanel</text>
</g>
<g id="clust10" class="cluster"><title>cluster_DrawingShapes</title>
<polygon fill="#ffe4c4" stroke="black" points="459,-211 459,-336 947,-336 947,-211 459,-211"/>
<text text-anchor="middle" x="703" y="-324" font-family="Verdana" font-size="10.00">DrawingShapes</text>
</g>
<g id="clust11" class="cluster"><title>cluster_MyShape</title>
<polygon fill="#ffe4c4" stroke="black" points="26,-24 26,-149 237,-149 237,-24 26,-24"/>
<text text-anchor="middle" x="131.5" y="-137" font-family="Verdana" font-size="10.00">MyShape</text>
</g>
<!-- &#45;717304834 -->
<g id="node1" class="node"><title>&#45;717304834</title>
<ellipse fill="yellow" stroke="yellow" cx="893" cy="-659" rx="1.8" ry="1.8"/>
</g>
<!-- 501846274 -->
<g id="node2" class="node"><title>501846274</title>
<ellipse fill="yellow" stroke="yellow" cx="893" cy="-818" rx="1.8" ry="1.8"/>
</g>
<!-- &#45;104331005 -->
<g id="node3" class="node"><title>&#45;104331005</title>
<polygon fill="#c0ff3e" stroke="none" points="238,-851 158,-851 158,-815 238,-815 238,-851"/>
<polyline fill="none" stroke="black" points="158,-815 238,-815 "/>
<text text-anchor="middle" x="198" y="-830.5" font-family="Verdana" font-size="10.00">MyRectangle</text>
</g>
<!-- 3091780 -->
<g id="node4" class="node"><title>3091780</title>
<polygon fill="#c0ff3e" stroke="none" points="225,-743 171,-743 171,-707 225,-707 225,-743"/>
<polyline fill="none" stroke="black" points="171,-707 225,-707 "/>
<text text-anchor="middle" x="198" y="-722.5" font-family="Verdana" font-size="10.00">draw</text>
</g>
<!-- 98245807 -->
<g id="node5" class="node"><title>98245807</title>
<polygon fill="#c0ff3e" stroke="none" points="88,-905 34,-905 34,-869 88,-869 88,-905"/>
<polyline fill="none" stroke="black" points="34,-869 88,-869 "/>
<text text-anchor="middle" x="61" y="-884.5" font-family="Verdana" font-size="10.00">getX1</text>
</g>
<!-- 3091780&#45;&gt;98245807 -->
<g id="edge1" class="edge"><title>3091780&#45;&gt;98245807</title>
<path fill="none" stroke="red" d="M170.75,-721.081C156.927,-732.331 139.99,-751.743 126,-770 120.293,-777.448 116.446,-783.421 113.216,-788.854"/>
<path fill="none" stroke="blue" d="M113.216,-788.854C106.517,-800.122 102.475,-809.062 90,-824 82.4033,-833.097 72.0631,-842.41 66.3112,-858.967"/>
<polygon fill="blue" stroke="blue" points="62.8425,-858.39 63.6344,-868.955 69.6039,-860.202 62.8425,-858.39"/>
</g>
<!-- 3091780&#45;&gt;98245807 -->
<g id="edge5" class="edge"><title>3091780&#45;&gt;98245807</title>
<path fill="none" stroke="red" d="M170.75,-737.085C156.927,-750.331 139.99,-769.743 126,-788 122.938,-791.996 120.411,-795.568 118.227,-798.86"/>
<path fill="none" stroke="blue" d="M118.227,-798.86C107.903,-814.426 105.262,-823.725 90,-842 85.0694,-847.904 78.9832,-853.9 73.7458,-860.322"/>
<polygon fill="blue" stroke="blue" points="70.711,-858.547 67.7167,-868.71 76.3951,-862.633 70.711,-858.547"/>
</g>
<!-- 3091780&#45;&gt;98245807 -->
<g id="edge11" class="edge"><title>3091780&#45;&gt;98245807</title>
<path fill="none" stroke="red" d="M179.927,-743.072C166.37,-757.717 147.029,-779.267 130.608,-800.076"/>
<path fill="none" stroke="blue" d="M130.608,-800.076C129.043,-802.06 127.505,-804.037 126,-806 108.455,-828.895 108.489,-837.861 90,-860 89.6077,-860.47 89.2081,-860.94 88.8022,-861.41"/>
<polygon fill="blue" stroke="blue" points="86.067,-859.212 81.8339,-868.925 91.1999,-863.972 86.067,-859.212"/>
</g>
<!-- 3091780&#45;&gt;98245807 -->
<g id="edge15" class="edge"><title>3091780&#45;&gt;98245807</title>
<path fill="none" stroke="red" d="M189.794,-743.055C179.432,-759.85 159.521,-782.572 140.939,-805.248"/>
<path fill="none" stroke="blue" d="M140.939,-805.248C135.779,-811.545 130.722,-817.838 126,-824 110.511,-844.212 108.723,-853.568 94.5107,-872.213"/>
<polygon fill="blue" stroke="blue" points="91.6526,-870.183 88.1333,-880.176 97.1163,-874.558 91.6526,-870.183"/>
</g>
<!-- 3091780&#45;&gt;98245807 -->
<g id="edge23" class="edge"><title>3091780&#45;&gt;98245807</title>
<path fill="none" stroke="red" d="M193.859,-743.231C185.022,-770.579 159.112,-800.537 136.541,-828.621"/>
<path fill="none" stroke="blue" d="M136.541,-828.621C132.913,-833.136 129.371,-837.601 126,-842 108.455,-864.895 108.489,-873.861 90,-896 85.1452,-901.813 79.1699,-907.715 73.9878,-909.485"/>
<polygon fill="blue" stroke="blue" points="75.1948,-906.186 64.6538,-905.118 72.2285,-912.526 75.1948,-906.186"/>
</g>
<!-- 98245808 -->
<g id="node6" class="node"><title>98245808</title>
<polygon fill="#c0ff3e" stroke="none" points="88,-689 34,-689 34,-653 88,-653 88,-689"/>
<polyline fill="none" stroke="black" points="34,-653 88,-653 "/>
<text text-anchor="middle" x="61" y="-668.5" font-family="Verdana" font-size="10.00">getX2</text>
</g>
<!-- 3091780&#45;&gt;98245808 -->
<g id="edge2" class="edge"><title>3091780&#45;&gt;98245808</title>
<path fill="none" stroke="red" d="M187.721,-706.762C178.662,-697.035 163.894,-687.264 147.606,-679.125"/>
<path fill="none" stroke="blue" d="M147.606,-679.125C131.319,-670.987 113.514,-664.481 98.3798,-661.284"/>
<polygon fill="blue" stroke="blue" points="98.6115,-657.775 88.1744,-659.596 97.4693,-664.681 98.6115,-657.775"/>
</g>
<!-- 3091780&#45;&gt;98245808 -->
<g id="edge6" class="edge"><title>3091780&#45;&gt;98245808</title>
<path fill="none" stroke="red" d="M176.789,-706.951C166.445,-700.901 153.124,-694.436 139.242,-688.522"/>
<path fill="none" stroke="blue" d="M139.242,-688.522C125.359,-682.609 110.915,-677.246 98.3247,-673.401"/>
<polygon fill="blue" stroke="blue" points="98.9653,-669.945 88.39,-670.588 97.0583,-676.68 98.9653,-669.945"/>
</g>
<!-- 3091780&#45;&gt;98245808 -->
<g id="edge12" class="edge"><title>3091780&#45;&gt;98245808</title>
<path fill="none" stroke="red" d="M170.971,-714.588C160.579,-710.432 148.047,-705.419 135.236,-700.295"/>
<path fill="none" stroke="blue" d="M135.236,-700.295C122.426,-695.171 109.339,-689.935 97.8369,-685.335"/>
<polygon fill="blue" stroke="blue" points="98.9947,-682.028 88.4101,-681.564 96.395,-688.528 98.9947,-682.028"/>
</g>
<!-- 3091780&#45;&gt;98245808 -->
<g id="edge16" class="edge"><title>3091780&#45;&gt;98245808</title>
<path fill="none" stroke="red" d="M170.971,-725.504C159.539,-722.581 145.517,-717.832 131.385,-712.249"/>
<path fill="none" stroke="blue" d="M131.385,-712.249C117.252,-706.666 103.01,-700.25 91.1373,-693.992"/>
<polygon fill="blue" stroke="blue" points="92.6731,-690.842 82.2291,-689.06 89.2824,-696.966 92.6731,-690.842"/>
</g>
<!-- 3091780&#45;&gt;98245808 -->
<g id="edge25" class="edge"><title>3091780&#45;&gt;98245808</title>
<path fill="none" stroke="red" d="M170.971,-736.42C157.331,-734.9 140.004,-729.657 123.201,-722.376"/>
<path fill="none" stroke="blue" d="M123.201,-722.376C106.399,-715.094 90.1217,-705.775 78.5829,-696.103"/>
<polygon fill="blue" stroke="blue" points="80.949,-693.524 71.2658,-689.224 76.1543,-698.624 80.949,-693.524"/>
</g>
<!-- 98245838 -->
<g id="node7" class="node"><title>98245838</title>
<polygon fill="#c0ff3e" stroke="none" points="88,-743 34,-743 34,-707 88,-707 88,-743"/>
<polyline fill="none" stroke="black" points="34,-707 88,-707 "/>
<text text-anchor="middle" x="61" y="-722.5" font-family="Verdana" font-size="10.00">getY1</text>
</g>
<!-- 3091780&#45;&gt;98245838 -->
<g id="edge3" class="edge"><title>3091780&#45;&gt;98245838</title>
<path fill="none" stroke="red" d="M181.25,-706.903C169.716,-701.633 153.146,-698.703 136.011,-698.112"/>
<path fill="none" stroke="blue" d="M136.011,-698.112C118.875,-697.521 101.175,-699.269 87.3825,-703.357"/>
<polygon fill="blue" stroke="blue" points="85.82,-700.203 77.6501,-706.949 88.2434,-706.77 85.82,-700.203"/>
</g>
<!-- 3091780&#45;&gt;98245838 -->
<g id="edge7" class="edge"><title>3091780&#45;&gt;98245838</title>
<path fill="none" stroke="red" d="M170.971,-714.084C160.672,-712.598 148.27,-711.753 135.579,-711.549"/>
<path fill="none" stroke="blue" d="M135.579,-711.549C122.889,-711.345 109.909,-711.781 98.4546,-712.859"/>
<polygon fill="blue" stroke="blue" points="97.9377,-709.395 88.4101,-714.029 98.748,-716.348 97.9377,-709.395"/>
</g>
<!-- 3091780&#45;&gt;98245838 -->
<g id="edge13" class="edge"><title>3091780&#45;&gt;98245838</title>
<path fill="none" stroke="red" d="M170.971,-725C160.672,-725 148.27,-725 135.579,-725"/>
<path fill="none" stroke="blue" d="M135.579,-725C122.889,-725 109.909,-725 98.4546,-725"/>
<polygon fill="blue" stroke="blue" points="98.4101,-721.5 88.4101,-725 98.41,-728.5 98.4101,-721.5"/>
</g>
<!-- 3091780&#45;&gt;98245838 -->
<g id="edge17" class="edge"><title>3091780&#45;&gt;98245838</title>
<path fill="none" stroke="red" d="M170.971,-735.916C160.672,-737.402 148.27,-738.247 135.579,-738.451"/>
<path fill="none" stroke="blue" d="M135.579,-738.451C122.889,-738.655 109.909,-738.219 98.4546,-737.141"/>
<polygon fill="blue" stroke="blue" points="98.748,-733.652 88.4101,-735.971 97.9377,-740.605 98.748,-733.652"/>
</g>
<!-- 3091780&#45;&gt;98245838 -->
<g id="edge24" class="edge"><title>3091780&#45;&gt;98245838</title>
<path fill="none" stroke="red" d="M181.25,-743.097C169.716,-748.367 153.146,-751.297 136.011,-751.888"/>
<path fill="none" stroke="blue" d="M136.011,-751.888C118.875,-752.479 101.175,-750.731 87.3825,-746.643"/>
<polygon fill="blue" stroke="blue" points="88.2434,-743.23 77.6501,-743.051 85.82,-749.797 88.2434,-743.23"/>
</g>
<!-- 98245839 -->
<g id="node8" class="node"><title>98245839</title>
<polygon fill="#c0ff3e" stroke="none" points="88,-797 34,-797 34,-761 88,-761 88,-797"/>
<polyline fill="none" stroke="black" points="34,-761 88,-761 "/>
<text text-anchor="middle" x="61" y="-776.5" font-family="Verdana" font-size="10.00">getY2</text>
</g>
<!-- 3091780&#45;&gt;98245839 -->
<g id="edge4" class="edge"><title>3091780&#45;&gt;98245839</title>
<path fill="none" stroke="red" d="M170.971,-713.58C157.331,-715.1 140.004,-720.343 123.201,-727.624"/>
<path fill="none" stroke="blue" d="M123.201,-727.624C106.399,-734.906 90.1217,-744.225 78.5829,-753.897"/>
<polygon fill="blue" stroke="blue" points="76.1543,-751.376 71.2658,-760.776 80.949,-756.476 76.1543,-751.376"/>
</g>
<!-- 3091780&#45;&gt;98245839 -->
<g id="edge8" class="edge"><title>3091780&#45;&gt;98245839</title>
<path fill="none" stroke="red" d="M170.971,-724.496C159.539,-727.419 145.517,-732.168 131.385,-737.751"/>
<path fill="none" stroke="blue" d="M131.385,-737.751C117.252,-743.334 103.01,-749.75 91.1373,-756.008"/>
<polygon fill="blue" stroke="blue" points="89.2824,-753.034 82.2291,-760.94 92.6731,-759.158 89.2824,-753.034"/>
</g>
<!-- 3091780&#45;&gt;98245839 -->
<g id="edge14" class="edge"><title>3091780&#45;&gt;98245839</title>
<path fill="none" stroke="red" d="M170.971,-735.412C160.579,-739.568 148.047,-744.581 135.236,-749.705"/>
<path fill="none" stroke="blue" d="M135.236,-749.705C122.426,-754.829 109.339,-760.065 97.8369,-764.665"/>
<polygon fill="blue" stroke="blue" points="96.395,-761.472 88.4101,-768.436 98.9947,-767.972 96.395,-761.472"/>
</g>
<!-- 3091780&#45;&gt;98245839 -->
<g id="edge18" class="edge"><title>3091780&#45;&gt;98245839</title>
<path fill="none" stroke="red" d="M176.789,-743.049C166.445,-749.099 153.124,-755.564 139.242,-761.478"/>
<path fill="none" stroke="blue" d="M139.242,-761.478C125.359,-767.391 110.915,-772.754 98.3247,-776.599"/>
<polygon fill="blue" stroke="blue" points="97.0583,-773.32 88.39,-779.412 98.9653,-780.055 97.0583,-773.32"/>
</g>
<!-- 3091780&#45;&gt;98245839 -->
<g id="edge26" class="edge"><title>3091780&#45;&gt;98245839</title>
<path fill="none" stroke="red" d="M187.721,-743.238C178.662,-752.965 163.894,-762.736 147.606,-770.875"/>
<path fill="none" stroke="blue" d="M147.606,-770.875C131.319,-779.013 113.514,-785.519 98.3798,-788.716"/>
<polygon fill="blue" stroke="blue" points="97.4693,-785.319 88.1744,-790.404 98.6115,-792.225 97.4693,-785.319"/>
</g>
<!-- 1389555745 -->
<g id="node9" class="node"><title>1389555745</title>
<polygon fill="#c0ff3e" stroke="none" points="89.5,-635 32.5,-635 32.5,-599 89.5,-599 89.5,-635"/>
<polyline fill="none" stroke="black" points="32.5,-599 89.5,-599 "/>
<text text-anchor="middle" x="61" y="-614.5" font-family="Verdana" font-size="10.00">setColor</text>
</g>
<!-- 3091780&#45;&gt;1389555745 -->
<g id="edge9" class="edge"><title>3091780&#45;&gt;1389555745</title>
<path fill="none" stroke="red" d="M184.542,-706.807C174.811,-696.36 160.357,-683.144 144.757,-670.017"/>
<path fill="none" stroke="blue" d="M144.757,-670.017C129.156,-656.89 112.408,-643.852 98.0881,-633.764"/>
<polygon fill="blue" stroke="blue" points="99.7702,-630.674 89.5431,-627.907 95.8124,-636.448 99.7702,-630.674"/>
</g>
<!-- 3091780&#45;&gt;1389555745 -->
<g id="edge19" class="edge"><title>3091780&#45;&gt;1389555745</title>
<path fill="none" stroke="red" d="M174.404,-706.923C163.209,-697.968 148.999,-686.599 134.48,-674.984"/>
<path fill="none" stroke="blue" d="M134.48,-674.984C119.96,-663.368 105.132,-651.506 92.7018,-641.561"/>
<polygon fill="blue" stroke="blue" points="94.6648,-638.65 84.6697,-635.136 90.2919,-644.116 94.6648,-638.65"/>
</g>
<!-- 3091780&#45;&gt;1389555745 -->
<g id="edge21" class="edge"><title>3091780&#45;&gt;1389555745</title>
<path fill="none" stroke="red" d="M170.971,-715.093C157.904,-706.524 141.451,-694.216 125.319,-681.132"/>
<path fill="none" stroke="blue" d="M125.319,-681.132C109.186,-668.048 93.3734,-654.188 81.5853,-642.516"/>
<polygon fill="blue" stroke="blue" points="84.0179,-639.997 74.5339,-635.274 79.0027,-644.881 84.0179,-639.997"/>
</g>
<!-- 1950668205 -->
<g id="node10" class="node"><title>1950668205</title>
<polygon fill="#c0ff3e" stroke="none" points="90,-851 32,-851 32,-815 90,-815 90,-851"/>
<polyline fill="none" stroke="black" points="32,-815 90,-815 "/>
<text text-anchor="middle" x="61" y="-830.5" font-family="Verdana" font-size="10.00">getColor</text>
</g>
<!-- 3091780&#45;&gt;1950668205 -->
<g id="edge10" class="edge"><title>3091780&#45;&gt;1950668205</title>
<path fill="none" stroke="red" d="M170.971,-734.907C157.904,-743.476 141.451,-755.784 125.319,-768.868"/>
<path fill="none" stroke="blue" d="M125.319,-768.868C109.186,-781.952 93.3734,-795.812 81.5853,-807.484"/>
<polygon fill="blue" stroke="blue" points="79.0027,-805.119 74.5339,-814.726 84.0179,-810.003 79.0027,-805.119"/>
</g>
<!-- 3091780&#45;&gt;1950668205 -->
<g id="edge20" class="edge"><title>3091780&#45;&gt;1950668205</title>
<path fill="none" stroke="red" d="M174.404,-743.077C163.209,-752.032 148.999,-763.401 134.48,-775.016"/>
<path fill="none" stroke="blue" d="M134.48,-775.016C119.96,-786.632 105.132,-798.494 92.7018,-808.439"/>
<polygon fill="blue" stroke="blue" points="90.2919,-805.884 84.6697,-814.864 94.6648,-811.35 90.2919,-805.884"/>
</g>
<!-- 3091780&#45;&gt;1950668205 -->
<g id="edge22" class="edge"><title>3091780&#45;&gt;1950668205</title>
<path fill="none" stroke="red" d="M184.542,-743.193C174.87,-753.576 160.533,-766.696 145.041,-779.744"/>
<path fill="none" stroke="blue" d="M145.041,-779.744C129.549,-792.792 112.903,-805.769 98.6115,-815.867"/>
<polygon fill="blue" stroke="blue" points="96.3296,-813.188 90.0746,-821.739 100.297,-818.955 96.3296,-813.188"/>
</g>
<!-- &#45;1976306626 -->
<g id="node11" class="node"><title>&#45;1976306626</title>
<polygon fill="#c0ff3e" stroke="none" points="225,-556 171,-556 171,-520 225,-520 225,-556"/>
<polyline fill="none" stroke="black" points="171,-520 225,-520 "/>
<text text-anchor="middle" x="198" y="-535.5" font-family="Verdana" font-size="10.00">MyOval</text>
</g>
<!-- &#45;1976408096 -->
<g id="node12" class="node"><title>&#45;1976408096</title>
<polygon fill="#c0ff3e" stroke="none" points="225,-477 171,-477 171,-441 225,-441 225,-477"/>
<polyline fill="none" stroke="black" points="171,-441 225,-441 "/>
<text text-anchor="middle" x="198" y="-456.5" font-family="Verdana" font-size="10.00">MyLine</text>
</g>
<!-- 88938904 -->
<g id="node13" class="node"><title>88938904</title>
<polygon fill="#c0ff3e" stroke="none" points="404.5,-201 332.5,-201 332.5,-165 404.5,-165 404.5,-201"/>
<polyline fill="none" stroke="black" points="332.5,-165 404.5,-165 "/>
<text text-anchor="middle" x="368.5" y="-180.5" font-family="Verdana" font-size="10.00">PaintJPanel</text>
</g>
<!-- &#45;1788058219 -->
<g id="node14" class="node"><title>&#45;1788058219</title>
<polygon fill="#c0ff3e" stroke="none" points="269,-201 127,-201 127,-165 269,-165 269,-201"/>
<polyline fill="none" stroke="black" points="127,-165 269,-165 "/>
<text text-anchor="middle" x="198" y="-180.5" font-family="Verdana" font-size="10.00">paintJPanelMousePressed</text>
</g>
<!-- 88938904&#45;&gt;&#45;1788058219 -->
<g id="edge27" class="edge"><title>88938904&#45;&gt;&#45;1788058219</title>
<path fill="none" stroke="red" d="M332.177,-183C324.406,-183 315.785,-183 306.773,-183"/>
<path fill="none" stroke="blue" d="M306.773,-183C297.762,-183 288.36,-183 279.028,-183"/>
<polygon fill="blue" stroke="blue" points="279.012,-179.5 269.012,-183 279.012,-186.5 279.012,-179.5"/>
</g>
<!-- 442736389 -->
<g id="node15" class="node"><title>442736389</title>
<polygon fill="#c0ff3e" stroke="none" points="270,-255 126,-255 126,-219 270,-219 270,-255"/>
<polyline fill="none" stroke="black" points="126,-219 270,-219 "/>
<text text-anchor="middle" x="198" y="-234.5" font-family="Verdana" font-size="10.00">paintJPanelMouseDragged</text>
</g>
<!-- 88938904&#45;&gt;442736389 -->
<g id="edge28" class="edge"><title>88938904&#45;&gt;442736389</title>
<path fill="none" stroke="red" d="M332.177,-194.32C322.424,-197.446 311.333,-201 299.811,-204.693"/>
<path fill="none" stroke="blue" d="M299.811,-204.693C288.289,-208.385 276.337,-212.215 264.864,-215.892"/>
<polygon fill="blue" stroke="blue" points="263.622,-212.615 255.168,-219 265.759,-219.281 263.622,-212.615"/>
</g>
<!-- 109328060 -->
<g id="node18" class="node"><title>109328060</title>
<polygon fill="#c0ff3e" stroke="none" points="88,-201 34,-201 34,-165 88,-165 88,-201"/>
<polyline fill="none" stroke="black" points="34,-165 88,-165 "/>
<text text-anchor="middle" x="61" y="-180.5" font-family="Verdana" font-size="10.00">setX2</text>
</g>
<!-- 442736389&#45;&gt;109328060 -->
<g id="edge29" class="edge"><title>442736389&#45;&gt;109328060</title>
<path fill="none" stroke="red" d="M148.787,-218.932C141.146,-215.992 133.344,-212.945 126,-210 125.029,-209.611 124.051,-209.217 123.067,-208.82"/>
<path fill="none" stroke="blue" d="M123.067,-208.82C114.615,-205.405 105.718,-201.707 97.4096,-198.205"/>
<polygon fill="blue" stroke="blue" points="98.6419,-194.926 88.0689,-194.247 95.9108,-201.371 98.6419,-194.926"/>
</g>
<!-- 109328091 -->
<g id="node19" class="node"><title>109328091</title>
<polygon fill="#c0ff3e" stroke="none" points="88,-255 34,-255 34,-219 88,-219 88,-255"/>
<polyline fill="none" stroke="black" points="34,-219 88,-219 "/>
<text text-anchor="middle" x="61" y="-234.5" font-family="Verdana" font-size="10.00">setY2</text>
</g>
<!-- 442736389&#45;&gt;109328091 -->
<g id="edge30" class="edge"><title>442736389&#45;&gt;109328091</title>
<path fill="none" stroke="red" d="M125.942,-237C121.155,-237 116.392,-237 111.749,-237"/>
<path fill="none" stroke="blue" d="M111.749,-237C107.107,-237 102.585,-237 98.2805,-237"/>
<polygon fill="blue" stroke="blue" points="98.2621,-233.5 88.2621,-237 98.262,-240.5 98.2621,-233.5"/>
</g>
<!-- 771821956 -->
<g id="node16" class="node"><title>771821956</title>
<polygon fill="#c0ff3e" stroke="none" points="431,-309 306,-309 306,-273 431,-273 431,-309"/>
<polyline fill="none" stroke="black" points="306,-273 431,-273 "/>
<text text-anchor="middle" x="368.5" y="-288.5" font-family="Verdana" font-size="10.00">setCurrentShapeType</text>
</g>
<!-- &#45;314797332 -->
<g id="node17" class="node"><title>&#45;314797332</title>
<polygon fill="#c0ff3e" stroke="none" points="415.5,-255 321.5,-255 321.5,-219 415.5,-219 415.5,-255"/>
<polyline fill="none" stroke="black" points="321.5,-219 415.5,-219 "/>
<text text-anchor="middle" x="368.5" y="-234.5" font-family="Verdana" font-size="10.00">setCurrentColor</text>
</g>
<!-- 672648767 -->
<g id="node20" class="node"><title>672648767</title>
<polygon fill="#c0ff3e" stroke="none" points="417,-363 320,-363 320,-327 417,-327 417,-363"/>
<polyline fill="none" stroke="black" points="320,-327 417,-327 "/>
<text text-anchor="middle" x="368.5" y="-342.5" font-family="Verdana" font-size="10.00">paintComponent</text>
</g>
<!-- 672648767&#45;&gt;3091780 -->
<g id="edge31" class="edge"><title>672648767&#45;&gt;3091780</title>
<path fill="none" stroke="red" d="M360.842,-363.152C349.456,-393.905 324.779,-459.329 297.143,-524.963"/>
<path fill="none" stroke="blue" d="M297.143,-524.963C288.286,-545.999 279.125,-567.056 270,-587 252.051,-626.231 228.779,-670.374 213.865,-697.937"/>
<polygon fill="blue" stroke="blue" points="210.661,-696.502 208.96,-706.959 216.811,-699.845 210.661,-696.502"/>
</g>
<!-- 263382672 -->
<g id="node21" class="node"><title>263382672</title>
<polygon fill="#c0ff3e" stroke="none" points="939,-309 847,-309 847,-273 939,-273 939,-309"/>
<polyline fill="none" stroke="black" points="847,-273 939,-273 "/>
<text text-anchor="middle" x="893" y="-288.5" font-family="Verdana" font-size="10.00">DrawingShapes</text>
</g>
<!-- &#45;206193134 -->
<g id="node22" class="node"><title>&#45;206193134</title>
<polygon fill="#c0ff3e" stroke="none" points="801,-309 685,-309 685,-273 801,-273 801,-309"/>
<polyline fill="none" stroke="black" points="685,-273 801,-273 "/>
<text text-anchor="middle" x="743" y="-288.5" font-family="Verdana" font-size="10.00">createUserInterface</text>
</g>
<!-- 263382672&#45;&gt;&#45;206193134 -->
<g id="edge32" class="edge"><title>263382672&#45;&gt;&#45;206193134</title>
<path fill="none" stroke="red" d="M846.791,-291C841.179,-291 835.306,-291 829.331,-291"/>
<path fill="none" stroke="blue" d="M829.331,-291C823.356,-291 817.281,-291 811.265,-291"/>
<polygon fill="blue" stroke="blue" points="811.244,-287.5 801.244,-291 811.244,-294.5 811.244,-287.5"/>
</g>
<!-- &#45;1036374012 -->
<g id="node23" class="node"><title>&#45;1036374012</title>
<polygon fill="#c0ff3e" stroke="none" points="649,-309 467,-309 467,-273 649,-273 649,-309"/>
<polyline fill="none" stroke="black" points="467,-273 649,-273 "/>
<text text-anchor="middle" x="558" y="-288.5" font-family="Verdana" font-size="10.00">shapeJComboBoxActionPerformed</text>
</g>
<!-- &#45;206193134&#45;&gt;&#45;1036374012 -->
<g id="edge33" class="edge"><title>&#45;206193134&#45;&gt;&#45;1036374012</title>
<path fill="none" stroke="red" d="M684.85,-291C680.78,-291 676.604,-291 672.361,-291"/>
<path fill="none" stroke="blue" d="M672.361,-291C668.118,-291 663.808,-291 659.471,-291"/>
<polygon fill="blue" stroke="blue" points="659.258,-287.5 649.258,-291 659.258,-294.5 659.258,-287.5"/>
</g>
<!-- &#45;1292346991 -->
<g id="node24" class="node"><title>&#45;1292346991</title>
<polygon fill="#c0ff3e" stroke="none" points="637.5,-255 478.5,-255 478.5,-219 637.5,-219 637.5,-255"/>
<polyline fill="none" stroke="black" points="478.5,-219 637.5,-219 "/>
<text text-anchor="middle" x="558" y="-234.5" font-family="Verdana" font-size="10.00">colorJButtonActionPerformed</text>
</g>
<!-- &#45;206193134&#45;&gt;&#45;1292346991 -->
<g id="edge34" class="edge"><title>&#45;206193134&#45;&gt;&#45;1292346991</title>
<path fill="none" stroke="red" d="M684.85,-274.136C676.139,-271.566 666.941,-268.851 657.644,-266.108"/>
<path fill="none" stroke="blue" d="M657.644,-266.108C648.348,-263.365 638.952,-260.592 629.844,-257.905"/>
<polygon fill="blue" stroke="blue" points="630.735,-254.518 620.153,-255.045 628.754,-261.232 630.735,-254.518"/>
</g>
<!-- &#45;1036374012&#45;&gt;771821956 -->
<g id="edge36" class="edge"><title>&#45;1036374012&#45;&gt;771821956</title>
<path fill="none" stroke="red" d="M466.82,-291C462.518,-291 458.206,-291 453.92,-291"/>
<path fill="none" stroke="blue" d="M453.92,-291C449.634,-291 445.375,-291 441.178,-291"/>
<polygon fill="blue" stroke="blue" points="441.083,-287.5 431.083,-291 441.083,-294.5 441.083,-287.5"/>
</g>
<!-- &#45;1292346991&#45;&gt;&#45;314797332 -->
<g id="edge35" class="edge"><title>&#45;1292346991&#45;&gt;&#45;314797332</title>
<path fill="none" stroke="red" d="M478.298,-237C469.459,-237 460.437,-237 451.558,-237"/>
<path fill="none" stroke="blue" d="M451.558,-237C442.678,-237 433.94,-237 425.67,-237"/>
<polygon fill="blue" stroke="blue" points="425.636,-233.5 415.636,-237 425.636,-240.5 425.636,-233.5"/>
</g>
<!-- 3343801 -->
<g id="node25" class="node"><title>3343801</title>
<polygon fill="#c0ff3e" stroke="none" points="920,-255 866,-255 866,-219 920,-219 920,-255"/>
<polyline fill="none" stroke="black" points="866,-219 920,-219 "/>
<text text-anchor="middle" x="893" y="-234.5" font-family="Verdana" font-size="10.00">main</text>
</g>
<!-- &#45;1132686027 -->
<g id="node26" class="node"><title>&#45;1132686027</title>
<polygon fill="#c0ff3e" stroke="none" points="229,-122 167,-122 167,-86 229,-86 229,-122"/>
<polyline fill="none" stroke="black" points="167,-86 229,-86 "/>
<text text-anchor="middle" x="198" y="-101.5" font-family="Verdana" font-size="10.00">MyShape</text>
</g>
<!-- &#45;1132686027&#45;&gt;1389555745 -->
<g id="edge41" class="edge"><title>&#45;1132686027&#45;&gt;1389555745</title>
<path fill="none" stroke="red" d="M166.88,-117.432C152.154,-125.583 135.58,-137.441 126,-153 123.471,-157.107 114.023,-221.926 103.133,-301.883"/>
<path fill="none" stroke="blue" d="M103.133,-301.883C89.1077,-404.859 72.6902,-532.945 65.5815,-588.781"/>
<polygon fill="blue" stroke="blue" points="62.0784,-588.585 64.2886,-598.946 69.0224,-589.468 62.0784,-588.585"/>
</g>
<!-- &#45;1132686027&#45;&gt;109328060 -->
<g id="edge39" class="edge"><title>&#45;1132686027&#45;&gt;109328060</title>
<path fill="none" stroke="red" d="M166.703,-121.729C156.364,-127.78 144.331,-134.821 132.182,-141.93"/>
<path fill="none" stroke="blue" d="M132.182,-141.93C120.033,-149.04 107.768,-156.217 96.9648,-162.539"/>
<polygon fill="blue" stroke="blue" points="94.9624,-159.656 88.0993,-167.727 98.4979,-165.697 94.9624,-159.656"/>
</g>
<!-- &#45;1132686027&#45;&gt;109328091 -->
<g id="edge40" class="edge"><title>&#45;1132686027&#45;&gt;109328091</title>
<path fill="none" stroke="red" d="M166.966,-120.912C153.467,-129.426 137.928,-140.576 126,-153 122.834,-156.298 120.236,-159.376 118.04,-162.307"/>
<path fill="none" stroke="blue" d="M118.04,-162.307C105.844,-178.581 106.034,-190.312 90,-210 89.6135,-210.475 89.2194,-210.949 88.8185,-211.424"/>
<polygon fill="blue" stroke="blue" points="86.0717,-209.241 81.9009,-218.98 91.2349,-213.968 86.0717,-209.241"/>
</g>
<!-- 109328059 -->
<g id="node27" class="node"><title>109328059</title>
<polygon fill="#c0ff3e" stroke="none" points="88,-68 34,-68 34,-32 88,-32 88,-68"/>
<polyline fill="none" stroke="black" points="34,-32 88,-32 "/>
<text text-anchor="middle" x="61" y="-47.5" font-family="Verdana" font-size="10.00">setX1</text>
</g>
<!-- &#45;1132686027&#45;&gt;109328059 -->
<g id="edge37" class="edge"><title>&#45;1132686027&#45;&gt;109328059</title>
<path fill="none" stroke="red" d="M166.703,-91.8813C156.456,-87.7825 144.546,-83.0183 132.508,-78.203"/>
<path fill="none" stroke="blue" d="M132.508,-78.203C120.469,-73.3877 108.303,-68.5213 97.5449,-64.218"/>
<polygon fill="blue" stroke="blue" points="98.684,-60.904 88.0993,-60.4397 96.0842,-67.4034 98.684,-60.904"/>
</g>
<!-- 109328090 -->
<g id="node28" class="node"><title>109328090</title>
<polygon fill="#c0ff3e" stroke="none" points="88,-122 34,-122 34,-86 88,-86 88,-122"/>
<polyline fill="none" stroke="black" points="34,-86 88,-86 "/>
<text text-anchor="middle" x="61" y="-101.5" font-family="Verdana" font-size="10.00">setY1</text>
</g>
<!-- &#45;1132686027&#45;&gt;109328090 -->
<g id="edge38" class="edge"><title>&#45;1132686027&#45;&gt;109328090</title>
<path fill="none" stroke="red" d="M166.703,-104C156.549,-104 144.76,-104 132.833,-104"/>
<path fill="none" stroke="blue" d="M132.833,-104C120.905,-104 108.839,-104 98.1278,-104"/>
<polygon fill="blue" stroke="blue" points="98.0994,-100.5 88.0993,-104 98.0993,-107.5 98.0994,-100.5"/>
</g>
</g>
</svg>
